# File created by Blade
# Date/Time:  Tue Sep 30 19:36:36 2014
#---------------------------------------------------------
:version 1.10
:name HOM
:units
  mass 1.0
  length 1.000000
  angle deg
:documentation
     Acclaim Skeleton File
:root
   axis xyz
   order TX TY TZ RX RY RZ
   position 0.000000 0.000000 0.000000
   orientation 0 0 0
:bonedata
   begin
      id 1
      name Spine_dum
      direction 0.000000 1.000000 0.000000
      length 3.241213
      axis 0.0 0.0 0.0 xyz
   end
   begin
      id 2
      name LeftUpLeg_dum
      direction 1.000000 0.000000 0.000000
      length 3.434019
      axis 0.0 0.0 0.0 xyz
   end
   begin
      id 3
      name RightUpLeg_dum
      direction -1.000000 0.000000 0.000000
      length 3.434019
      axis 0.0 0.0 0.0 xyz
   end
   begin
      id 4
      name Spine
      direction 0.000000 1.000000 0.000000
      length 0.000000
      axis 0.0 0.0 0.0 xyz
      dof rx ry rz
   end
   begin
      id 5
      name Spine_dum1
      direction 0.000000 1.000000 0.000000
      length 18.382958
      axis 0.0 0.0 0.0 xyz
   end
   begin
      id 6
      name Spine_dum2
      direction 0.000000 1.000000 0.000000
      length 12.828261
      axis 0.0 0.0 0.0 xyz
   end
   begin
      id 7
      name Spine_dum3
      direction 0.000000 1.000000 0.000000
      length 12.828261
      axis 0.0 0.0 0.0 xyz
   end
   begin
      id 8
      name Head
      direction 0.000000 1.000000 0.000000
      length 4.527550
      axis 0.0 0.0 0.0 xyz
      dof rx ry rz
   end
   begin
      id 9
      name LeftShoulder
      direction 1.000000 0.000000 0.000000
      length 7.748055
      axis 0.0 0.0 -90.0 xyz
      dof rx ry rz
   end
   begin
      id 10
      name LeftArm
      direction 1.000000 0.000000 0.000000
      length 10.635614
      axis 0.0 0.0 -90.0 xyz
      dof rx ry rz
   end
   begin
      id 11
      name LeftForeArm
      direction 1.000000 0.000000 0.000000
      length 8.346755
      axis 0.0 0.0 -90.0 xyz
      dof ry rz rx
   end
   begin
      id 12
      name LeftHand
      direction 0.000000 0.000000 0.000000
      length 0.000000
      axis 0.0 0.0 -90.0 xyz
      dof rx ry rz
   end
   begin
      id 13
      name LeftHand_dum1
      direction 0.000000 0.000000 0.000000
      length 0.000000
      axis 0.0 0.0 -90.0 xyz
   end
   begin
      id 14
      name LeftHand_dum2
      direction 1.000000 0.000000 0.000000
      length 3.937000
      axis 0.0 0.0 -90.0 xyz
   end
   begin
      id 15
      name LeftHandThumb1
      direction 0.000000 0.000000 1.000000
      length 3.937000
      axis 0.0 0.0 -90.0 xyz
      dof rx rz ry
   end
   begin
      id 16
      name RightShoulder
      direction -1.000000 0.000000 0.000000
      length 7.748055
      axis 0.0 0.0 90.0 xyz
      dof rx ry rz
   end
   begin
      id 17
      name RightArm
      direction -1.000000 0.000000 0.000000
      length 10.635614
      axis 0.0 0.0 90.0 xyz
      dof rx ry rz
   end
   begin
      id 18
      name RightForeArm
      direction -1.000000 0.000000 0.000000
      length 8.346755
      axis 0.0 0.0 90.0 xyz
      dof ry rz rx
   end
   begin
      id 19
      name RightHand
      direction 0.000000 0.000000 0.000000
      length 0.000000
      axis 0.0 0.0 90.0 xyz
      dof rx ry rz
   end
   begin
      id 20
      name RightHand_dum1
      direction 0.000000 0.000000 0.000000
      length 0.000000
      axis 0.0 0.0 90.0 xyz
   end
   begin
      id 21
      name RightHand_dum2
      direction -1.000000 0.000000 0.000000
      length 3.937000
      axis 0.0 0.0 90.0 xyz
   end
   begin
      id 22
      name RightHandThumb1
      direction 0.000000 0.000000 1.000000
      length 3.937000
      axis 0.0 0.0 90.0 xyz
      dof rx rz ry
   end
   begin
      id 23
      name LeftUpLeg
      direction 0.000000 -1.000000 0.000000
      length 15.713025
      axis 0.0 0.0 0.0 xyz
      dof rx ry rz
   end
   begin
      id 24
      name LeftLeg
      direction 0.000000 -1.000000 0.000000
      length 14.435119
      axis 0.0 0.0 0.0 xyz
      dof rx ry rz
   end
   begin
      id 25
      name LeftFoot
      direction 0.000000 -0.258819 0.965926
      length 4.938895
      axis 15.0 0.0 0.0 xyz
      dof rx ry rz
   end
   begin
      id 26
      name LeftToeBase
      direction 0.000000 0.000000 1.000000
      length 2.952750
      axis 0.0 0.0 0.0 xyz
      dof rx ry rz
   end
   begin
      id 27
      name RightUpLeg
      direction 0.000000 -1.000000 0.000000
      length 15.713025
      axis 0.0 0.0 0.0 xyz
      dof rx ry rz
   end
   begin
      id 28
      name RightLeg
      direction 0.000000 -1.000000 0.000000
      length 14.435119
      axis 0.0 0.0 0.0 xyz
      dof rx ry rz
   end
   begin
      id 29
      name RightFoot
      direction 0.000000 -0.258819 0.965926
      length 4.938895
      axis 15.0 0.0 0.0 xyz
      dof rx ry rz
   end
   begin
      id 30
      name RightToeBase
      direction 0.000000 0.000000 1.000000
      length 2.952750
      axis 0.0 0.0 0.0 xyz
      dof rx ry rz
   end
:hierarchy
   begin
      root Spine_dum LeftUpLeg_dum RightUpLeg_dum
      Spine_dum Spine
      LeftUpLeg_dum LeftUpLeg
      RightUpLeg_dum RightUpLeg
      Spine Spine_dum1 Spine_dum2 Spine_dum3
      Spine_dum1 Head
      Spine_dum2 LeftShoulder
      Spine_dum3 RightShoulder
      LeftShoulder LeftArm
      LeftArm LeftForeArm
      LeftForeArm LeftHand
      LeftHand LeftHand_dum1 LeftHand_dum2
      LeftHand_dum1 LeftHandThumb1
      RightShoulder RightArm
      RightArm RightForeArm
      RightForeArm RightHand
      RightHand RightHand_dum1 RightHand_dum2
      RightHand_dum1 RightHandThumb1
      LeftUpLeg LeftLeg
      LeftLeg LeftFoot
      LeftFoot LeftToeBase
      RightUpLeg RightLeg
      RightLeg RightFoot
      RightFoot RightToeBase
   end

# File created by Blade
# Date/Time:  Tue Sep 23 19:22:32 2014
# Frame Rate: 120.000 fps
#------------------------------------------------------
:FULLY-SPECIFIED
:DEGREES
1267
root -5.606181 31.756861 2.428439 73.475605 -6.995052 -20.096488
Spine -41.395047 -7.868471 8.347983
Head -21.836529 15.828160 18.754304
LeftShoulder -21.026827 39.402921 22.607201
LeftArm 49.521665 -56.643622 -85.261243
LeftForeArm 19.369764 -0.000000 93.529634
LeftHand 29.804955 -0.000000 31.953906
LeftHandThumb1 -26.253704 0.000000 33.147579
RightShoulder -41.727559 -52.015809 13.163096
RightArm 34.533726 16.721791 91.724693
RightForeArm 92.998109 -0.000000 -7.820742
RightHand 17.208986 -0.000000 17.165723
RightHandThumb1 -24.326973 -0.000000 -32.862282
LeftUpLeg -86.130318 2.733388 16.598311
LeftLeg 36.739160 -0.000000 -0.000000
LeftFoot -13.628525 11.421501 9.731280
LeftToeBase -2.465822 -0.000000 0.000000
RightUpLeg -19.496792 20.838300 -25.287738
RightLeg 123.448851 -0.000000 -0.000000
RightFoot 34.447672 22.106354 -15.038269
RightToeBase 32.333044 -0.000000 -0.000000
1268
root -5.721195 31.704629 2.394453 73.217634 -7.074155 -19.465023
Spine -41.007277 -8.507306 7.961257
Head -22.656411 15.696961 18.413789
LeftShoulder -20.893350 40.191093 22.404444
LeftArm 52.342716 -57.775701 -89.052866
LeftForeArm 19.022022 -0.000000 93.668750
LeftHand 30.273254 -0.000000 31.437107
LeftHandThumb1 -26.253704 0.000000 33.147579
RightShoulder -42.471150 -51.666504 14.124073
RightArm 34.832055 16.084117 92.509606
RightForeArm 93.585499 -0.000000 -7.958530
RightHand 17.076119 -0.000000 17.212814
RightHandThumb1 -24.326973 -0.000000 -32.862282
LeftUpLeg -86.134590 2.273800 16.259216
LeftLeg 36.794526 -0.000000 -0.000000
LeftFoot -13.707492 11.866104 10.259820
LeftToeBase -2.732873 -0.000000 0.000000
RightUpLeg -20.138610 19.871496 -24.601078
RightLeg 124.710972 -0.000000 -0.000000
RightFoot 34.691853 22.622557 -14.492486
RightToeBase 32.183841 -0.000000 -0.000000
1269
root -5.832573 31.669077 2.372081 73.097223 -7.047895 -18.919577
Spine -40.812582 -8.994676 7.777433
Head -23.284247 15.492814 17.876548
LeftShoulder -20.749981 41.203433 22.115751
LeftArm 55.459828 -58.601819 -93.001690
LeftForeArm 19.160293 -0.000000 93.681009
LeftHand 30.068519 -0.000000 31.791524
LeftHandThumb1 -26.253704 0.000000 33.147579
RightShoulder -43.396361 -51.384219 15.044058
RightArm 35.032241 15.292512 93.283379
RightForeArm 94.560486 -0.000000 -7.972893
RightHand 17.143134 -0.000000 17.016251
RightHandThumb1 -24.326973 -0.000000 -32.862282
LeftUpLeg -86.030851 1.850430 16.144860
LeftLeg 36.486276 -0.000000 -0.000000
LeftFoot -13.793971 12.428492 10.924698
LeftToeBase -2.695831 -0.000000 0.000000
RightUpLeg -20.889700 18.772529 -23.741013
RightLeg 125.918478 -0.000000 -0.000000
RightFoot 34.961146 22.998405 -13.959213
RightToeBase 31.686316 -0.000000 -0.000000
1270
root -5.926196 31.653513 2.354331 73.100277 -6.929189 -18.403776
Spine -40.815901 -9.653255 8.011195
Head -23.678423 15.591815 17.171437
LeftShoulder -20.912355 41.930465 21.656849
LeftArm 57.773183 -59.212065 -96.160877
LeftForeArm 19.103554 -0.000000 93.625828
LeftHand 30.126013 -0.000000 31.808907
LeftHandThumb1 -26.253704 0.000000 33.147579
RightShoulder -43.766278 -51.253744 15.425164
RightArm 35.157411 14.667615 94.147541
RightForeArm 95.491623 -0.000000 -8.010085
RightHand 16.994906 -0.000000 16.833611
RightHandThumb1 -24.326973 -0.000000 -32.862282
LeftUpLeg -85.901398 1.363041 16.367115
LeftLeg 35.896420 -0.000000 -0.000000
LeftFoot -13.746355 13.099477 11.448450
LeftToeBase -2.658456 -0.000000 0.000000
RightUpLeg -21.733731 17.580745 -22.812438
RightLeg 127.029879 -0.000000 -0.000000
RightFoot 35.110876 23.418872 -13.469595
RightToeBase 31.430914 -0.000000 -0.000000
1271
root -6.003130 31.662425 2.336369 73.176148 -6.814052 -17.977148
Spine -40.903825 -10.311242 8.429022
Head -23.933394 15.843590 16.412665
LeftShoulder -21.367678 42.365654 21.075995
LeftArm 59.298963 -59.495111 -98.381347
LeftForeArm 19.458520 -0.000000 93.522174
LeftHand 29.893542 0.000000 32.052499
LeftHandThumb1 -26.253704 0.000000 33.147579
RightShoulder -43.775343 -51.112162 15.475361
RightArm 35.165375 14.229880 94.989893
RightForeArm 95.953736 0.000000 -8.103692
RightHand 16.730581 -0.000000 16.749679
RightHandThumb1 -24.326973 -0.000000 -32.862282
LeftUpLeg -85.732624 0.948593 16.656820
LeftLeg 35.120160 -0.000000 -0.000000
LeftFoot -13.532821 13.729399 11.952519
LeftToeBase -2.483859 -0.000000 0.000000
RightUpLeg -22.706538 16.312457 -21.900851
RightLeg 128.090128 -0.000000 -0.000000
RightFoot 35.182307 23.647281 -13.207674
RightToeBase 31.259018 -0.000000 -0.000000
